# xmcd
#
# Track frame offsets: 
#        150
#        16800
#        30975
#        53250
#        71250
#        88987
#        102487
#
# Disc length: 1569 seconds
#
# Revision: 0
# Processed by: cddbd v1.5.2PL0 Copyright (c) Steve Scherf et al.
# Submitted via: ExactAudioCopy v1.1
#
DISCID=48061f07
DTITLE=Makenna Hope- - With Love
DYEAR=2020
DGENRE=Country
TTITLE0=Hold On To My Heart
TTITLE1=Someday
TTITLE2=Grandma's Letters
TTITLE3=Dead and Gone
TTITLE4=This Old House
TTITLE5=Heirloom Seeds
TTITLE6=Taylor Made
EXTD=
EXTT0=
EXTT1=
EXTT2=
EXTT3=
EXTT4=
EXTT5=
EXTT6=
PLAYORDER=
